<?xml version="1.0" encoding="UTF-8"?>
<svg id="Calque_1" data-name="Calque 1" xmlns="http://www.w3.org/2000/svg" viewBox="0 0 401.58 77.95">
  <defs>
    <style>
      .cls-1 {
        fill: #2a4867;
      }
    </style>
  </defs>
  <g>
    <path class="cls-1" d="M397.3,77.95c-1.09,0-2.19-.42-3.02-1.25L327.7,10.12c-1.67-1.67-1.67-4.38,0-6.05s4.38-1.67,6.05,0l66.58,66.58c1.67,1.67,1.67,4.38,0,6.05-.83.83-1.93,1.25-3.02,1.25Z"/>
    <path class="cls-1" d="M330.72,77.95c-1.09,0-2.19-.42-3.02-1.25-1.67-1.67-1.67-4.38,0-6.05L394.28,4.07c1.67-1.67,4.38-1.67,6.05,0s1.67,4.38,0,6.05l-66.58,66.58c-.83.83-1.93,1.25-3.02,1.25Z"/>
  </g>
  <g>
    <path class="cls-1" d="M242.68,0h-51.3c-2.36,0-4.28,1.91-4.28,4.27v21.51h8.55V8.55h42.75v42.75h-17.23v8.55h21.51c2.36,0,4.27-1.92,4.27-4.28V4.27c0-2.36-1.91-4.27-4.27-4.27Z"/>
    <path class="cls-1" d="M225.44,17.23h-51.3c-2.36,0-4.27,1.92-4.27,4.28v51.3c0,2.36,1.91,4.27,4.27,4.27h51.3c2.36,0,4.28-1.91,4.28-4.27V21.51c0-2.36-1.92-4.28-4.28-4.28ZM221.17,68.53h-42.75V25.78h42.75v42.75Z"/>
  </g>
  <path class="cls-1" d="M79.86,44.66H4.28c-2.36,0-4.28-1.91-4.28-4.28s1.91-4.28,4.28-4.28h75.59c2.36,0,4.28,1.91,4.28,4.28s-1.91,4.28-4.28,4.28Z"/>
</svg>