<?xml version="1.0" encoding="UTF-8"?>
<svg id="Calque_1" data-name="Calque 1" xmlns="http://www.w3.org/2000/svg" viewBox="0 0 408.44 408.44">
  <defs>
    <style>
      .cls-1 {
        fill: #ed728c;
      }
    </style>
  </defs>
  <path class="cls-1" d="M313.74,408.44H94.69c-52.21,0-94.69-42.48-94.69-94.7V94.7C0,42.48,42.48,0,94.69,0h219.04c52.21,0,94.7,42.48,94.7,94.7v219.04c0,52.21-42.48,94.7-94.7,94.7ZM94.69,18.35c-42.09,0-76.34,34.25-76.34,76.34v219.04c0,42.1,34.25,76.34,76.34,76.34h219.04c42.1,0,76.34-34.25,76.34-76.34V94.7c0-42.1-34.25-76.34-76.34-76.34H94.69Z"/>
  <path class="cls-1" d="M204.22,82.81c-68.74,0-124.48,55.73-124.48,124.48,0,55,35.67,101.66,85.13,118.12,6.22,1.15,8.51-2.7,8.51-5.99,0-2.97-.12-12.77-.17-23.17-34.63,7.53-41.94-14.69-41.94-14.69-5.66-14.39-13.82-18.21-13.82-18.21-11.29-7.73.85-7.57.85-7.57,12.5.88,19.08,12.83,19.08,12.83,11.1,19.03,29.12,13.53,36.22,10.35,1.12-8.04,4.34-13.54,7.9-16.64-27.65-3.15-56.71-13.82-56.71-61.52,0-13.59,4.86-24.7,12.83-33.41-1.29-3.14-5.55-15.79,1.21-32.94,0,0,10.45-3.35,34.24,12.76,9.93-2.76,20.58-4.14,31.16-4.19,10.58.05,21.24,1.43,31.18,4.19,23.76-16.1,34.2-12.76,34.2-12.76,6.78,17.14,2.51,29.81,1.22,32.94,7.98,8.72,12.81,19.82,12.81,33.41,0,47.81-29.12,58.34-56.84,61.42,4.46,3.86,8.44,11.44,8.44,23.05,0,16.65-.14,30.06-.14,34.16,0,3.31,2.24,7.19,8.55,5.97,49.43-16.48,85.05-63.12,85.05-118.1,0-68.75-55.73-124.48-124.48-124.48Z"/>
</svg>