<?xml version="1.0" encoding="UTF-8"?>
<svg id="Calque_1" xmlns="http://www.w3.org/2000/svg" version="1.1" viewBox="0 0 408.4 408.4">
  <!-- Generator: Adobe Illustrator 29.3.1, SVG Export Plug-In . SVG Version: 2.1.0 Build 151)  -->
  <defs>
    <style>
      .st0 {
        fill:currentColor;
      }

      .st1 {
        fill: #fffae7;
      }
    </style>
  </defs>
  <rect class="st1" width="408.4" height="408.4" rx="116.9" ry="116.9"/>
  <path class="st0" d="M313.7,408.4H94.7c-52.2,0-94.7-42.5-94.7-94.7V94.7C0,42.5,42.5,0,94.7,0h219c52.2,0,94.7,42.5,94.7,94.7v219c0,52.2-42.5,94.7-94.7,94.7h0ZM94.7,18.4c-42.1,0-76.3,34.2-76.3,76.3v219c0,42.1,34.2,76.3,76.3,76.3h219c42.1,0,76.3-34.2,76.3-76.3V94.7c0-42.1-34.2-76.3-76.3-76.3H94.7Z"/>
  <path class="st0" d="M204.2,82.8c-68.7,0-124.5,55.7-124.5,124.5s35.7,101.7,85.1,118.1c6.2,1.1,8.5-2.7,8.5-6s-.1-12.8-.2-23.2c-34.6,7.5-41.9-14.7-41.9-14.7-5.7-14.4-13.8-18.2-13.8-18.2-11.3-7.7.8-7.6.8-7.6,12.5.9,19.1,12.8,19.1,12.8,11.1,19,29.1,13.5,36.2,10.4,1.1-8,4.3-13.5,7.9-16.6-27.6-3.1-56.7-13.8-56.7-61.5s4.9-24.7,12.8-33.4c-1.3-3.1-5.6-15.8,1.2-32.9,0,0,10.4-3.4,34.2,12.8,9.9-2.8,20.6-4.1,31.2-4.2,10.6,0,21.2,1.4,31.2,4.2,23.8-16.1,34.2-12.8,34.2-12.8,6.8,17.1,2.5,29.8,1.2,32.9,8,8.7,12.8,19.8,12.8,33.4,0,47.8-29.1,58.3-56.8,61.4,4.5,3.9,8.4,11.4,8.4,23,0,16.6-.1,30.1-.1,34.2s2.2,7.2,8.6,6c49.4-16.5,85-63.1,85-118.1s-55.7-124.5-124.5-124.5h0Z"/>
</svg>