<?xml version="1.0" encoding="UTF-8"?>
<svg id="Calque_1" xmlns="http://www.w3.org/2000/svg" version="1.1" viewBox="0 0 408.4 408.4">
  <!-- Generator: Adobe Illustrator 29.3.1, SVG Export Plug-In . SVG Version: 2.1.0 Build 151)  -->
  <defs>
    <style>
      .st0 {
        fill: currentColor;
      }

      .st1 {
        fill: #fffae7;
      }
    </style>
  </defs>
  <rect class="st1" width="408.4" height="408.4" rx="116.9" ry="116.9"/>
  <path class="st0" d="M313.7,408.4H94.7c-52.2,0-94.7-42.5-94.7-94.7V94.7C0,42.5,42.5,0,94.7,0h219c52.2,0,94.7,42.5,94.7,94.7v219c0,52.2-42.5,94.7-94.7,94.7h0ZM94.7,18.4c-42.1,0-76.3,34.2-76.3,76.3v219c0,42.1,34.2,76.3,76.3,76.3h219c42.1,0,76.3-34.2,76.3-76.3V94.7c0-42.1-34.2-76.3-76.3-76.3H94.7Z"/>
  <path class="st0" d="M204.2,101.8c33.4,0,37.3.1,50.5.7,12.2.6,18.8,2.6,23.2,4.3,5.8,2.3,10,5,14.4,9.3,4.4,4.4,7.1,8.5,9.3,14.4,1.7,4.4,3.8,11,4.3,23.2.6,13.2.7,17.1.7,50.5s-.1,37.3-.7,50.5c-.6,12.2-2.6,18.8-4.3,23.2-2.3,5.8-5,10-9.3,14.4s-8.5,7.1-14.4,9.3c-4.4,1.7-11,3.8-23.2,4.3-13.2.6-17.1.7-50.5.7s-37.3-.1-50.5-.7c-12.2-.6-18.8-2.6-23.2-4.3-5.8-2.3-10-5-14.4-9.3s-7.1-8.5-9.3-14.4c-1.7-4.4-3.8-11-4.3-23.2-.6-13.2-.7-17.1-.7-50.5s.1-37.3.7-50.5c.6-12.2,2.6-18.8,4.3-23.2,2.3-5.8,5-10,9.3-14.4,4.4-4.4,8.5-7.1,14.4-9.3,4.4-1.7,11-3.8,23.2-4.3,13.2-.6,17.1-.7,50.5-.7M204.2,79.3c-33.9,0-38.2.1-51.5.8-13.3.6-22.4,2.7-30.3,5.8-8.2,3.2-15.2,7.5-22.1,14.4-6.9,6.9-11.2,13.9-14.4,22.1-3.1,8-5.2,17-5.8,30.3-.6,13.3-.8,17.6-.8,51.5s.1,38.2.8,51.5c.6,13.3,2.7,22.4,5.8,30.3,3.2,8.2,7.5,15.2,14.4,22.1,6.9,6.9,13.9,11.2,22.1,14.4,8,3.1,17,5.2,30.3,5.8,13.3.6,17.6.8,51.5.8s38.2-.1,51.5-.8c13.3-.6,22.4-2.7,30.3-5.8,8.2-3.2,15.2-7.5,22.1-14.4,6.9-6.9,11.2-13.9,14.4-22.1,3.1-8,5.2-17,5.8-30.3.6-13.3.8-17.6.8-51.5s-.1-38.2-.8-51.5c-.6-13.3-2.7-22.4-5.8-30.3-3.2-8.2-7.5-15.2-14.4-22.1-6.9-6.9-13.9-11.2-22.1-14.4-8-3.1-17-5.2-30.3-5.8-13.3-.6-17.6-.8-51.5-.8ZM204.2,140.1c-35.4,0-64.1,28.7-64.1,64.1s28.7,64.1,64.1,64.1,64.1-28.7,64.1-64.1-28.7-64.1-64.1-64.1h0ZM204.2,245.9c-23,0-41.6-18.6-41.6-41.6s18.6-41.6,41.6-41.6,41.6,18.6,41.6,41.6-18.6,41.6-41.6,41.6h0ZM285.9,137.5c0,8.3-6.7,15-15,15s-15-6.7-15-15,6.7-15,15-15,15,6.7,15,15Z"/>
</svg>