<?xml version="1.0" encoding="UTF-8"?>
<svg id="Calque_1" data-name="Calque 1" xmlns="http://www.w3.org/2000/svg" viewBox="0 0 408.43 408.44">
  <defs>
    <style>
      .cls-1 {
        fill: #ed728c;
      }
    </style>
  </defs>
  <path class="cls-1" d="M313.73,408.44H94.69c-52.21,0-94.69-42.48-94.69-94.7V94.7C0,42.48,42.48,0,94.69,0h219.04c52.22,0,94.7,42.48,94.7,94.7v219.04c0,52.21-42.48,94.7-94.7,94.7ZM94.69,18.35c-42.09,0-76.34,34.25-76.34,76.34v219.04c0,42.1,34.25,76.34,76.34,76.34h219.04c42.09,0,76.34-34.25,76.34-76.34V94.7c0-42.1-34.25-76.34-76.34-76.34H94.69Z"/>
  <path class="cls-1" d="M204.22,101.82c33.35,0,37.3.13,50.47.73,12.18.56,18.79,2.59,23.19,4.3,5.83,2.27,9.99,4.97,14.36,9.34,4.37,4.37,7.08,8.53,9.34,14.36,1.71,4.4,3.75,11.02,4.3,23.19.6,13.17.73,17.12.73,50.47s-.13,37.3-.73,50.47c-.56,12.18-2.59,18.79-4.3,23.19-2.27,5.83-4.97,9.99-9.34,14.36s-8.53,7.08-14.36,9.34c-4.4,1.71-11.02,3.75-23.19,4.3-13.17.6-17.12.73-50.47.73s-37.3-.13-50.47-.73c-12.18-.56-18.79-2.59-23.19-4.3-5.83-2.26-9.99-4.97-14.36-9.34-4.37-4.37-7.08-8.53-9.34-14.36-1.71-4.4-3.75-11.02-4.3-23.19-.6-13.17-.73-17.12-.73-50.47s.13-37.3.73-50.47c.56-12.18,2.59-18.79,4.3-23.19,2.26-5.83,4.97-9.99,9.34-14.36,4.37-4.37,8.53-7.08,14.36-9.34,4.4-1.71,11.02-3.75,23.19-4.3,13.17-.6,17.12-.73,50.47-.73M204.22,79.31c-33.92,0-38.18.14-51.5.75-13.3.61-22.38,2.72-30.32,5.81-8.21,3.19-15.18,7.46-22.12,14.41-6.94,6.94-11.21,13.91-14.41,22.12-3.09,7.95-5.2,17.03-5.81,30.32-.61,13.32-.75,17.58-.75,51.5s.14,38.18.75,51.5c.61,13.3,2.72,22.38,5.81,30.32,3.19,8.21,7.46,15.18,14.41,22.12,6.94,6.94,13.91,11.21,22.12,14.41,7.95,3.09,17.02,5.2,30.32,5.81,13.32.61,17.58.75,51.5.75s38.18-.14,51.5-.75c13.29-.61,22.37-2.72,30.32-5.81,8.21-3.19,15.18-7.46,22.12-14.41,6.94-6.94,11.22-13.91,14.41-22.12,3.09-7.95,5.2-17.02,5.81-30.32.61-13.32.75-17.58.75-51.5s-.14-38.18-.75-51.5c-.61-13.29-2.72-22.37-5.81-30.32-3.19-8.21-7.46-15.18-14.41-22.12-6.94-6.94-13.91-11.22-22.12-14.41-7.95-3.09-17.03-5.2-30.32-5.81-13.32-.61-17.58-.75-51.5-.75ZM204.22,140.08c-35.42,0-64.14,28.72-64.14,64.14s28.72,64.14,64.14,64.14,64.14-28.72,64.14-64.14-28.72-64.14-64.14-64.14ZM204.22,245.85c-22.99,0-41.64-18.64-41.64-41.64s18.64-41.64,41.64-41.64,41.64,18.64,41.64,41.64-18.64,41.64-41.64,41.64h0ZM285.88,137.54c0,8.28-6.71,14.99-14.99,14.99s-14.99-6.71-14.99-14.99,6.71-14.99,14.99-14.99,14.99,6.71,14.99,14.99Z"/>
</svg>