<?xml version="1.0" encoding="UTF-8"?>
<svg id="Calque_1" data-name="Calque 1" xmlns="http://www.w3.org/2000/svg" viewBox="0 0 408.44 408.44">
  <defs>
    <style>
      .cls-1 {
        fill: #ed728c;
      }
    </style>
  </defs>
  <path class="cls-1" d="M313.74,408.44H94.69c-52.21,0-94.69-42.48-94.69-94.7V94.7C0,42.48,42.48,0,94.69,0h219.05c52.22,0,94.7,42.48,94.7,94.7v219.04c0,52.21-42.48,94.7-94.7,94.7ZM94.69,18.35c-42.09,0-76.34,34.25-76.34,76.34v219.04c0,42.1,34.24,76.34,76.34,76.34h219.05c42.09,0,76.34-34.25,76.34-76.34V94.7c0-42.1-34.25-76.34-76.34-76.34H94.69Z"/>
  <path class="cls-1" d="M124.33,107.78c-15.47,0-24.75,9.3-24.75,21.68s9.28,21.65,23.2,21.65c15.47,0,24.75-9.27,24.75-21.65s-9.28-21.68-23.2-21.68ZM100.82,174.28v126.37h45.56v-126.37h-45.56ZM183.96,174.28v126.37h45.56v-69.07c0-20.56,14.67-23.52,19.08-23.52s16.18,4.42,16.18,23.52v69.07h44.07v-69.07c0-39.66-17.62-57.3-39.67-57.3s-33.8,7.34-39.67,17.63v-17.63h-45.56Z"/>
</svg>