<?xml version="1.0" encoding="UTF-8"?>
<svg id="Calque_1" xmlns="http://www.w3.org/2000/svg" version="1.1" viewBox="0 0 408.4 408.4">
  <!-- Generator: Adobe Illustrator 29.3.1, SVG Export Plug-In . SVG Version: 2.1.0 Build 151)  -->
  <defs>
    <style>
      .st0 {
        fill: #ed728c;
      }

      .st1 {
        fill: #fffae7;
      }
    </style>
  </defs>
  <rect class="st1" width="408.4" height="408.4" rx="116.9" ry="116.9"/>
  <path class="st0" d="M313.7,408.4H94.7c-52.2,0-94.7-42.5-94.7-94.7V94.7C0,42.5,42.5,0,94.7,0h219c52.2,0,94.7,42.5,94.7,94.7v219c0,52.2-42.5,94.7-94.7,94.7ZM94.7,18.4c-42.1,0-76.3,34.2-76.3,76.3v219c0,42.1,34.2,76.3,76.3,76.3h219c42.1,0,76.3-34.2,76.3-76.3V94.7c0-42.1-34.2-76.3-76.3-76.3H94.7Z"/>
  <path class="st0" d="M124.3,107.8c-15.5,0-24.8,9.3-24.8,21.7s9.3,21.6,23.2,21.6,24.8-9.3,24.8-21.6-9.3-21.7-23.2-21.7ZM100.8,174.3v126.4h45.6v-126.4h-45.6ZM184,174.3v126.4h45.6v-69.1c0-20.6,14.7-23.5,19.1-23.5s16.2,4.4,16.2,23.5v69.1h44.1v-69.1c0-39.7-17.6-57.3-39.7-57.3s-33.8,7.3-39.7,17.6v-17.6h-45.6,0Z"/>
</svg>