<?xml version="1.0" encoding="UTF-8"?>
<svg id="Calque_1" data-name="Calque 1" xmlns="http://www.w3.org/2000/svg" viewBox="0 0 184.87 261.37">
  <defs>
    <style>
      .cls-1 {
        fill: #46babe;
      }

      .cls-2 {
        fill: #f8fcfc;
      }

      .cls-3 {
        fill: #f6b6bf;
      }

      .cls-4 {
        fill: #85c179;
      }

      .cls-5 {
        fill: #badbba;
      }

      .cls-6 {
        fill: #ed7089;
      }

      .cls-7 {
        fill: #2b4a6b;
      }

      .cls-8 {
        fill: #f7fbfc;
      }

      .cls-9 {
        fill: #f6fbfc;
      }
    </style>
  </defs>
  <polygon class="cls-3" points="157.12 68.94 154.31 182.55 51.59 169.15 56.06 55.26 157.12 68.94"/>
  <path class="cls-7" d="M154.31,184.86c-.1,0-.2,0-.3-.02l-102.72-13.4c-1.18-.15-2.05-1.18-2.01-2.38l4.47-113.89c.03-.65.32-1.26.82-1.67s1.15-.61,1.79-.52l101.06,13.67c1.16.16,2.02,1.17,2,2.34l-2.81,113.61c-.02.65-.31,1.27-.8,1.69-.42.36-.95.55-1.5.55ZM53.98,167.14l98.1,12.8,2.69-108.99-96.5-13.06-4.28,109.25Z"/>
  <path class="cls-5" d="M162.99,73.36s16.26-11.5,13.98-18.49c-1.31-4.04-11.98-2.75-11.98-2.75,6.77-3.87,25.31-16.54,14-27.45-12.83-8.18-32.06,9.07-32.06,9.07C174.66,1.66,130.17,2.31,130.17,2.31c-55.78,1.29-88.54,33.09-92.46,35.17-2.51,1.34-3.31-.06-3.56-1.22-.13-.59-.11-1.19,0-1.78.55-2.76,2.81-14.7-.11-12.64-3.3,2.32-14.67,25.06-16.13,27.26-.05.07-.09.13-.14.2-1.1,1.46-3.25,1.6-4.61.37-2.08-1.89-6.89-5.91-7.84-3.63-.58,2.64,1.22,7.29,3.05,11.1,1.37,2.84,3.07,5.52,4.97,8.03,2.26,2.98,5.67,9.26,2.56,17.38-1.5,3.9-2.38,8.01-2.41,12.18-.07,10.22,2.58,19.27,2.58,19.27l34.07-1.11,12.27-31.41,29.98-3.07,70.59-5.05Z"/>
  <path class="cls-7" d="M16.07,116.29c-1.02,0-1.92-.67-2.21-1.66-.11-.38-2.74-9.49-2.67-19.93.03-4.27.89-8.64,2.56-13,2.71-7.05-.24-12.53-2.24-15.16-2.1-2.77-3.86-5.61-5.21-8.42-2.77-5.75-3.82-9.87-3.23-12.59.03-.13.07-.27.12-.39.43-1.04,1.3-1.78,2.37-2.01,1.44-.32,3.77-.06,9.15,4.82.19.17.44.25.69.23.15-.01.37-.07.52-.28.02-.03.04-.06.07-.09.34-.51,1.6-2.87,2.94-5.38,7.09-13.28,11.39-20.8,13.79-22.48,1.14-.8,2.43-.87,3.46-.2,1.57,1.02,1.95,3.21,1.39,8.05-.33,2.88-.92,5.94-1.16,7.13-.05.23-.06.44-.04.64.08-.03.16-.08.25-.13.34-.18,1.53-1.11,2.69-2,5-3.88,15.39-11.95,30.68-19.2C88.92,5.28,109.14.49,130.11,0c.91-.01,21.98-.19,27.11,10.81,1.81,3.88,1.4,8.52-1.22,13.84,7.1-3.86,16.51-6.85,24.23-1.93.13.08.25.18.36.28,3.27,3.15,4.67,6.72,4.19,10.61-.81,6.51-6.95,12.38-12.18,16.26,3.62.56,5.82,1.99,6.56,4.27,1.26,3.85-.94,8.5-6.7,14.22-3.87,3.84-7.97,6.75-8.14,6.87-.34.24-.75.39-1.17.42l-70.56,5.05-28.54,2.92-11.76,30.09c-.34.86-1.15,1.44-2.07,1.46l-34.07,1.11s-.05,0-.08,0ZM7.61,48.24c.23,1.45.92,3.91,2.84,7.89,1.22,2.54,2.82,5.11,4.73,7.64,2.58,3.4,6.38,10.46,2.87,19.6-1.47,3.84-2.23,7.66-2.26,11.37-.05,7.21,1.32,13.86,2.04,16.89l30.71-1,11.72-29.99c.31-.8,1.05-1.37,1.91-1.45l29.98-3.07s.05,0,.07,0l69.94-5.01c5.95-4.32,13.76-11.96,12.6-15.52-.09-.27-1.08-1.08-4.38-1.3-2.59-.17-5.1.12-5.13.13-1.09.13-2.12-.52-2.46-1.57-.34-1.04.09-2.18,1.04-2.72,7.07-4.04,15.59-10.93,16.36-17.06.29-2.35-.57-4.5-2.65-6.56-11.21-6.84-28.9,8.81-29.08,8.97-.91.81-2.29.78-3.15-.07-.87-.85-.92-2.23-.13-3.15,5.02-5.81,10.45-13.9,7.86-19.47-3.21-6.9-17.59-8.23-22.85-8.15-47.67,1.1-78.07,24.71-88.05,32.46-1.72,1.33-2.66,2.07-3.35,2.43-1.71.91-3.24,1.06-4.55.45-.84-.39-1.93-1.27-2.35-3.23-.19-.87-.19-1.79,0-2.72.58-2.89.95-5.37,1.15-7.25-3.1,4.82-7.91,13.83-10.05,17.84-1.78,3.33-2.73,5.1-3.17,5.76-.07.11-.14.21-.22.31-.89,1.19-2.27,1.96-3.77,2.1-1.54.15-3.08-.37-4.23-1.41-1.8-1.63-3.12-2.59-4-3.12ZM162.99,73.36h0,0ZM162.99,73.36h0,0ZM161.66,71.47h0Z"/>
  <path class="cls-2" d="M52.57,27.43s88.77-37.13,99.99-2.97l3.63-8.25-2.64-7.59-11.06-4.46-33-.83-46.2,15.68-10.73,8.42Z"/>
  <path class="cls-2" d="M146.93,33.74s29.53-12.14,34.74,1.64l1.19-6.51-7.92-6.4-11.82,1.95-16.19,9.31Z"/>
  <path class="cls-7" d="M16.07,116.29c-1.02,0-1.92-.67-2.21-1.66-.11-.38-2.74-9.49-2.67-19.93.03-4.27.89-8.64,2.56-13,2.71-7.05-.24-12.53-2.24-15.16-2.1-2.77-3.86-5.61-5.21-8.42-2.77-5.75-3.82-9.87-3.23-12.59.03-.13.07-.27.12-.39.43-1.04,1.3-1.78,2.37-2.01,1.44-.32,3.77-.06,9.15,4.82.19.17.44.25.69.23.15-.01.37-.07.52-.28.02-.03.04-.06.07-.09.34-.51,1.6-2.87,2.94-5.38,7.09-13.28,11.39-20.8,13.79-22.48,1.14-.8,2.43-.87,3.46-.2,1.57,1.02,1.95,3.21,1.39,8.05-.33,2.88-.92,5.94-1.16,7.13-.05.23-.06.44-.04.64.08-.03.16-.08.25-.13.34-.18,1.53-1.11,2.69-2,5-3.88,15.39-11.95,30.68-19.2C88.92,5.28,109.14.49,130.11,0c.91-.01,21.98-.19,27.11,10.81,1.81,3.88,1.4,8.52-1.22,13.84,7.1-3.86,16.51-6.85,24.23-1.93.13.08.25.18.36.28,3.27,3.15,4.67,6.72,4.19,10.61-.81,6.51-6.95,12.38-12.18,16.26,3.62.56,5.82,1.99,6.56,4.27,1.26,3.85-.94,8.5-6.7,14.22-3.87,3.84-7.97,6.75-8.14,6.87-.34.24-.75.39-1.17.42l-70.56,5.05-28.54,2.92-11.76,30.09c-.34.86-1.15,1.44-2.07,1.46l-34.07,1.11s-.05,0-.08,0ZM7.61,48.24c.23,1.45.92,3.91,2.84,7.89,1.22,2.54,2.82,5.11,4.73,7.64,2.58,3.4,6.38,10.46,2.87,19.6-1.47,3.84-2.23,7.66-2.26,11.37-.05,7.21,1.32,13.86,2.04,16.89l30.71-1,11.72-29.99c.31-.8,1.05-1.37,1.91-1.45l29.98-3.07s.05,0,.07,0l69.94-5.01c5.95-4.32,13.76-11.96,12.6-15.52-.09-.27-1.08-1.08-4.38-1.3-2.59-.17-5.1.12-5.13.13-1.09.13-2.12-.52-2.46-1.57-.34-1.04.09-2.18,1.04-2.72,7.07-4.04,15.59-10.93,16.36-17.06.29-2.35-.57-4.5-2.65-6.56-11.21-6.84-28.9,8.81-29.08,8.97-.91.81-2.29.78-3.15-.07-.87-.85-.92-2.23-.13-3.15,5.02-5.81,10.45-13.9,7.86-19.47-3.21-6.9-17.59-8.23-22.85-8.15-47.67,1.1-78.07,24.71-88.05,32.46-1.72,1.33-2.66,2.07-3.35,2.43-1.71.91-3.24,1.06-4.55.45-.84-.39-1.93-1.27-2.35-3.23-.19-.87-.19-1.79,0-2.72.58-2.89.95-5.37,1.15-7.25-3.1,4.82-7.91,13.83-10.05,17.84-1.78,3.33-2.73,5.1-3.17,5.76-.07.11-.14.21-.22.31-.89,1.19-2.27,1.96-3.77,2.1-1.54.15-3.08-.37-4.23-1.41-1.8-1.63-3.12-2.59-4-3.12ZM162.99,73.36h0,0ZM162.99,73.36h0,0ZM161.66,71.47h0Z"/>
  <path class="cls-3" d="M36.94,245.61s39.86,26.35,89.66,10.8l1.89-32.41-85.07-20.25c.29,13.95-2.04,29.49-6.48,41.86Z"/>
  <path class="cls-7" d="M126.6,258.71s-.09,0-.14,0c-1.27-.07-2.24-1.16-2.17-2.44l1.78-30.48-80.26-19.11c.41,23.67-6.47,39.19-6.78,39.87-.52,1.16-1.89,1.68-3.05,1.15-1.16-.52-1.68-1.89-1.15-3.05h0s1.86-4.17,3.54-11.24c1.55-6.51,3.28-16.93,2.74-29.57-.03-.72.28-1.42.84-1.88.56-.46,1.3-.63,2-.46l85.07,20.25c1.09.26,1.83,1.26,1.77,2.38l-1.89,32.41c-.07,1.23-1.09,2.17-2.3,2.17Z"/>
  <path class="cls-7" d="M90.28,261.37c-.08,0-.15,0-.23-.01-1.27-.12-2.19-1.25-2.07-2.52l.44-4.54c.07-.69.44-1.31,1.02-1.7,2.2-1.45,3.34-2.93,3.41-4.4.09-1.88-1.65-3.71-2.32-4.25-.59-.46-.9-1.17-.87-1.92l1.39-27.25c.06-1.27,1.15-2.25,2.42-2.18,1.27.06,2.25,1.15,2.18,2.42l-1.34,26.17c1.26,1.27,3.27,3.85,3.14,7.19-.11,2.75-1.64,5.25-4.55,7.42l-.34,3.48c-.12,1.19-1.12,2.08-2.29,2.08Z"/>
  <path class="cls-5" d="M37.75,109.41s11.99,36.92-6.39,63.62c0,0-10.94,12.77,6.6,31.91,0,0,26.58,29.95,65.64,30.43,0,0,49.07-4,40.12-19.98,0,0,11.44.83,19.38-2.9,0,0,5.97-2.75,8-7.45.81-1.88-.2-4.09-2.15-4.71-1.62-.52-3.33-.44-3.33-.44,0,0,5.98-3.02,9.26-7.01,1.96-2.38,1.68-5.89-.59-7.97-5.64-5.19-14.76-10.24-14.76-10.24,0,0-24.34,2.92-56.41-15.1,0,0-12.08-3.08-27.46-4.83,0,0-11.42.22-15.38-10.98-2.42-9.45-3.51-29.43-3.51-29.43,0,0,7.22.51,11.49-1.63,1.93-.97,3.16-2.99,3.05-5.15-.27-5.03-7.27-5.77-7.27-5.77,0,0,7.39.29,12.49-1.84,4.87-2.03,5.4-8.8.79-11.38-.7-.39-1.22-.51-1.22-.51l-12.65-12.55"/>
  <path class="cls-7" d="M103.6,237.67s-.02,0-.03,0c-20.73-.25-37.93-8.71-48.7-15.77-11.51-7.53-18.19-14.93-18.62-15.42-5.32-5.8-11.44-14.83-10.46-24.9.55-5.7,3.17-9.25,3.72-9.94,5.03-7.33,10.75-20.25,9.64-40.31-.67-12.13-3.56-21.13-3.59-21.21-.39-1.21.27-2.51,1.48-2.9,1.21-.39,2.51.27,2.9,1.48.13.39,3.1,9.66,3.81,22.38.94,16.96-2.68,31.91-10.49,43.25-.05.07-.1.13-.15.19-.38.45-9.29,11.58,6.55,28.85,0,0,.02.02.02.03.06.07,6.66,7.42,17.83,14.71,10.22,6.67,26.49,14.67,46.01,14.94,1.01-.09,9.16-.83,17.78-2.69,15.44-3.32,19.62-7.32,20.73-9.4.46-.86.92-2.25-.32-4.46-.41-.74-.39-1.65.07-2.36s1.27-1.12,2.11-1.06c.11,0,10.95.74,18.23-2.69.07-.03,5.22-2.46,6.86-6.27.18-.41.06-.78-.02-.96-.08-.18-.29-.51-.71-.64-1.17-.37-2.52-.33-2.53-.33-1.08.05-2.06-.67-2.33-1.72-.28-1.05.22-2.15,1.19-2.64.05-.03,5.59-2.86,8.52-6.42,1.17-1.43,1.01-3.54-.37-4.81-4.55-4.18-11.62-8.37-13.71-9.58-2,.15-7.68.38-16.01-.87-9.35-1.41-23.98-5.06-40.74-14.42-1.91-.47-13.06-3.12-26.74-4.69-.74,0-3.64-.13-6.93-1.46-3.5-1.4-8.16-4.46-10.49-11.06-.02-.06-.04-.13-.06-.2-2.44-9.55-3.54-29.05-3.58-29.88-.04-.66.21-1.3.68-1.77.47-.46,1.12-.7,1.78-.66,1.84.13,7.27.12,10.29-1.39,1.13-.57,1.84-1.76,1.78-2.96-.16-2.95-5.17-3.59-5.22-3.6-1.23-.14-2.14-1.23-2.05-2.46.09-1.24,1.15-2.18,2.38-2.13.07,0,6.95.24,11.51-1.66,1.5-.62,2.45-1.97,2.54-3.59.09-1.54-.65-2.91-1.99-3.65-.32-.18-.57-.26-.63-.28-.44-.09-.76-.29-1.08-.61l-12.65-12.55c-.9-.9-.91-2.36-.01-3.26.9-.9,2.36-.91,3.26-.01l12.27,12.17c.31.12.69.28,1.11.52,2.87,1.6,4.53,4.65,4.34,7.94-.19,3.37-2.25,6.28-5.37,7.58-1.63.68-3.45,1.14-5.21,1.44.85,1.14,1.34,2.46,1.41,3.91.16,3.06-1.53,5.93-4.31,7.33-3.09,1.55-7.35,1.89-10.06,1.93.38,5.58,1.44,19.2,3.26,26.41,3.36,9.35,12.73,9.35,13.13,9.35.1,0,.2,0,.3.01,15.35,1.75,27.64,4.86,27.76,4.89.2.05.38.13.56.22,16.17,9.08,30.26,12.63,39.24,14,9.73,1.49,15.71.82,15.77.81.48-.06.97.04,1.39.27.38.21,9.42,5.25,15.2,10.56,3.18,2.92,3.54,7.81.82,11.13-1.5,1.82-3.47,3.44-5.26,4.71.75.57,1.36,1.33,1.76,2.21.68,1.49.7,3.2.06,4.7-2.35,5.45-8.87,8.5-9.15,8.63-5.68,2.67-12.88,3.17-17.06,3.19.36,2.24-.21,4.07-.9,5.36-2.69,5.04-10.49,8.88-23.87,11.75-9.46,2.03-18.07,2.74-18.44,2.77-.06,0-.12,0-.19,0ZM31.35,173.03h0,0Z"/>
  <g>
    <ellipse class="cls-4" cx="150.77" cy="80.19" rx="18.13" ry="7.04"/>
    <path class="cls-7" d="M150.77,73.15c10.01,0,18.13,3.15,18.13,7.04s-8.12,7.04-18.13,7.04-18.13-3.15-18.13-7.04,8.12-7.04,18.13-7.04M150.77,68.54c-5.4,0-10.55.84-14.49,2.37-2.2.85-4,1.91-5.33,3.14-2.41,2.21-2.92,4.56-2.92,6.14s.51,3.92,2.92,6.14c1.34,1.23,3.13,2.28,5.33,3.14,3.94,1.53,9.09,2.37,14.49,2.37s10.55-.84,14.49-2.37c2.2-.85,4-1.91,5.33-3.14,2.41-2.21,2.92-4.56,2.92-6.14s-.51-3.92-2.92-6.14c-1.34-1.23-3.13-2.28-5.33-3.14-3.94-1.53-9.09-2.37-14.49-2.37h0Z"/>
  </g>
  <path class="cls-2" d="M138.94,74.13c-.65.44,25.92.21,29.59,9.37l2.47-3.67-1.74-4.28-5.95-3.74-13.76-1.67-10.62,3.99Z"/>
  <path class="cls-7" d="M150.77,73.15c10.01,0,18.13,3.15,18.13,7.04s-8.12,7.04-18.13,7.04-18.13-3.15-18.13-7.04,8.12-7.04,18.13-7.04M150.77,68.54c-5.4,0-10.55.84-14.49,2.37-2.2.85-4,1.91-5.33,3.14-2.41,2.21-2.92,4.56-2.92,6.14s.51,3.92,2.92,6.14c1.34,1.23,3.13,2.28,5.33,3.14,3.94,1.53,9.09,2.37,14.49,2.37s10.55-.84,14.49-2.37c2.2-.85,4-1.91,5.33-3.14,2.41-2.21,2.92-4.56,2.92-6.14s-.51-3.92-2.92-6.14c-1.34-1.23-3.13-2.28-5.33-3.14-3.94-1.53-9.09-2.37-14.49-2.37h0Z"/>
  <g>
    <line class="cls-1" x1="146.56" y1="71.34" x2="148.25" y2="88.33"/>
    <rect class="cls-7" x="145.1" y="71.3" width="4.61" height="17.08" transform="translate(-7.18 14.99) rotate(-5.68)"/>
  </g>
  <g>
    <line class="cls-1" x1="156.71" y1="71.68" x2="155.27" y2="88.25"/>
    <rect class="cls-7" x="147.67" y="77.66" width="16.63" height="4.61" transform="translate(62.84 228.46) rotate(-85.04)"/>
  </g>
  <g>
    <line class="cls-1" x1="164.15" y1="73.88" x2="163.13" y2="87.66"/>
    <rect class="cls-7" x="156.73" y="78.46" width="13.82" height="4.61" transform="translate(71.08 238.04) rotate(-85.79)"/>
  </g>
  <path class="cls-5" d="M128.56,64.95s15.44,9.11,12.12,17.91c-2.04,4.51-11.26,2.96-11.26,2.96,0,0,7.88,8.17.47,11.83-7.41,3.66-20.84-10.38-20.84-10.38"/>
  <path class="cls-7" d="M127.13,100.57c-3.29,0-7.24-1.62-11.77-4.85-4.41-3.14-7.83-6.7-7.97-6.85-.88-.92-.85-2.38.07-3.26.92-.88,2.38-.85,3.26.07.03.03,3.3,3.42,7.36,6.31,4.78,3.39,8.61,4.67,10.79,3.59,1.65-.82,1.81-1.69,1.86-1.98.35-1.97-1.85-5.02-2.97-6.19-.69-.72-.84-1.8-.37-2.67.47-.88,1.44-1.36,2.42-1.2.02,0,2.13.35,4.4.18,1.35-.1,3.7-.46,4.35-1.76.67-1.87.44-5.05-4.25-9.67-3.2-3.16-6.88-5.35-6.92-5.37-1.09-.65-1.46-2.06-.81-3.16.65-1.1,2.06-1.46,3.15-.81.17.1,4.14,2.46,7.75,5.99,3.63,3.56,7.51,9.01,5.36,14.72-.02.05-.04.09-.06.14-1.54,3.41-5.46,4.38-8.74,4.55.92,1.76,1.6,3.9,1.23,6.03-.28,1.58-1.26,3.79-4.36,5.33-1.15.57-2.41.85-3.79.85ZM140.69,82.87h0,0Z"/>
  <g>
    <ellipse class="cls-4" cx="90.55" cy="78.1" rx="26.51" ry="10.29"/>
    <path class="cls-7" d="M90.55,67.81c14.64,0,26.51,4.61,26.51,10.29s-11.87,10.29-26.51,10.29-26.51-4.61-26.51-10.29,11.87-10.29,26.51-10.29M90.55,63.2c-7.64,0-14.89,1.18-20.41,3.33-9.31,3.62-10.71,8.8-10.71,11.57s1.39,7.96,10.71,11.57c5.53,2.15,12.77,3.33,20.41,3.33s14.89-1.18,20.41-3.33c9.31-3.62,10.71-8.8,10.71-11.57s-1.39-7.96-10.71-11.57c-5.53-2.15-12.77-3.33-20.41-3.33h0Z"/>
  </g>
  <path class="cls-8" d="M72.18,69.96s41.72-1.84,45.31,11.47l2.45-4.39-7.09-7.59-24.81-4.73-15.86,5.23Z"/>
  <path class="cls-7" d="M90.55,67.81c14.64,0,26.51,4.61,26.51,10.29s-11.87,10.29-26.51,10.29-26.51-4.61-26.51-10.29,11.87-10.29,26.51-10.29M90.55,63.2c-7.64,0-14.89,1.18-20.41,3.33-9.31,3.62-10.71,8.8-10.71,11.57s1.39,7.96,10.71,11.57c5.53,2.15,12.77,3.33,20.41,3.33s14.89-1.18,20.41-3.33c9.31-3.62,10.71-8.8,10.71-11.57s-1.39-7.96-10.71-11.57c-5.53-2.15-12.77-3.33-20.41-3.33h0Z"/>
  <g>
    <line class="cls-1" x1="75.55" y1="67.37" x2="80.2" y2="89.69"/>
    <rect class="cls-7" x="75.57" y="67.13" width="4.61" height="22.8" transform="translate(-14.38 17.53) rotate(-11.77)"/>
  </g>
  <g>
    <line class="cls-1" x1="87.81" y1="65.42" x2="88.91" y2="90.11"/>
    <rect class="cls-7" x="86.06" y="65.41" width="4.61" height="24.71" transform="translate(-3.37 4.01) rotate(-2.55)"/>
  </g>
  <g>
    <line class="cls-1" x1="99.56" y1="66.19" x2="98.38" y2="89.35"/>
    <rect class="cls-7" x="87.37" y="75.46" width="23.19" height="4.61" transform="translate(16.26 172.64) rotate(-87.08)"/>
  </g>
  <g>
    <line class="cls-1" x1="109.62" y1="68.81" x2="109.71" y2="86.73"/>
    <rect class="cls-7" x="107.36" y="68.81" width="4.61" height="17.92" transform="translate(-.37 .52) rotate(-.27)"/>
  </g>
  <circle class="cls-9" cx="140.02" cy="131.5" r="23.93"/>
  <path class="cls-7" d="M140.02,157.74c-14.47,0-26.24-11.77-26.24-26.24s11.77-26.24,26.24-26.24,26.24,11.77,26.24,26.24-11.77,26.24-26.24,26.24ZM140.02,109.88c-11.92,0-21.63,9.7-21.63,21.63s9.7,21.63,21.63,21.63,21.63-9.7,21.63-21.63-9.7-21.63-21.63-21.63Z"/>
  <ellipse class="cls-7" cx="141.32" cy="127.17" rx="12.61" ry="12.28"/>
  <circle class="cls-9" cx="131.12" cy="120.2" r="4.83"/>
  <circle class="cls-9" cx="96.63" cy="130.12" r="27.4"/>
  <path class="cls-7" d="M96.63,159.82c-16.38,0-29.7-13.32-29.7-29.7s13.32-29.7,29.7-29.7,29.7,13.32,29.7,29.7-13.32,29.7-29.7,29.7ZM96.63,105.03c-13.83,0-25.09,11.26-25.09,25.09s11.26,25.09,25.09,25.09,25.09-11.26,25.09-25.09-11.26-25.09-25.09-25.09Z"/>
  <ellipse class="cls-7" cx="95.82" cy="125.84" rx="12.61" ry="12.28"/>
  <circle class="cls-9" cx="86.23" cy="117.72" r="4.83"/>
  <path class="cls-3" d="M120.94,143.37s5.78,15.17,24.18,8.91c18.4-6.26,24.12-12.02,27.51-11.23s8.48,7.31,5.22,16.96c-3.26,9.65-16.83,17.87-34.18,16.44-17.35-1.44-25.83-16.57-25.83-16.57"/>
  <path class="cls-7" d="M147.64,176.91c-1.37,0-2.76-.06-4.17-.17-18.36-1.52-27.28-17.08-27.65-17.74-.62-1.11-.23-2.52.88-3.14,1.11-.62,2.52-.23,3.14.88.08.14,8.14,14.09,24.01,15.4,5.4.45,13.46.15,21.13-3.81,5.34-2.76,9.24-6.79,10.68-11.07,1.86-5.51.5-9.26-.47-11.01-.99-1.78-2.3-2.79-3.08-2.97-.78-.18-3.26,1.09-5.88,2.43-4.18,2.14-10.5,5.38-20.38,8.74-10.49,3.57-17.31.62-21.17-2.49-4.18-3.36-5.83-7.6-5.9-7.78-.45-1.19.14-2.52,1.33-2.97,1.19-.45,2.52.14,2.97,1.32.03.07,1.37,3.4,4.63,5.95,4.3,3.36,9.9,3.9,16.65,1.6,9.56-3.25,15.7-6.4,19.76-8.48,4.11-2.11,6.59-3.38,9.01-2.82,2.27.52,4.54,2.47,6.07,5.21,1.35,2.41,3.24,7.53.81,14.73-1.85,5.48-6.44,10.34-12.93,13.69-5.73,2.96-12.39,4.48-19.46,4.48Z"/>
  <ellipse class="cls-3" cx="25.07" cy="142.92" rx="22.77" ry="31.65"/>
  <path class="cls-7" d="M25.07,176.88c-6.84,0-13.23-3.63-17.97-10.23-4.58-6.37-7.1-14.79-7.1-23.73s2.52-17.36,7.1-23.73c4.75-6.6,11.13-10.23,17.97-10.23s13.23,3.63,17.97,10.23c4.58,6.37,7.1,14.79,7.1,23.73s-2.52,17.36-7.1,23.73c-4.75,6.6-11.13,10.23-17.97,10.23ZM25.07,113.58c-11.28,0-20.46,13.16-20.46,29.34s9.18,29.34,20.46,29.34,20.46-13.16,20.46-29.34-9.18-29.34-20.46-29.34Z"/>
  <path class="cls-6" d="M26.3,111.41c4.37.49,6.28,5.88,3.15,8.98-1.14,1.13-2.86,2.22-5.42,3.15-13.27,4.8-11.75,20.47-10.74,25.27.05.24.09.48.11.73.68,6.61-9.2,7.99-10.48,1.47-.43-2.21-.71-5.12-.54-8.87.32-7.06,2.36-13.95,6.13-19.93,6.34-10.04,13.37-11.29,17.79-10.79Z"/>
  <path class="cls-7" d="M8.1,157.55c-3.26,0-6.62-1.96-7.44-6.1-.54-2.77-.74-5.94-.59-9.42.34-7.6,2.58-14.88,6.48-21.06,3.06-4.85,6.61-8.28,10.56-10.19,3.02-1.47,6.2-2.03,9.44-1.66h0c2.92.33,5.34,2.27,6.31,5.06.97,2.78.28,5.78-1.79,7.84-1.49,1.48-3.6,2.72-6.26,3.68-12.67,4.59-9.65,20.8-9.27,22.63.07.31.12.64.15.96.48,4.66-2.86,7.64-6.4,8.17-.4.06-.8.09-1.2.09ZM24.67,113.62c-3.94,0-9.22,1.91-14.21,9.81-3.47,5.5-5.47,12.01-5.78,18.8-.14,3.11.03,5.92.5,8.32.4,2.05,2.1,2.55,3.43,2.35.46-.07,2.77-.55,2.5-3.14-.02-.17-.04-.33-.08-.49-.34-1.64-1.36-7.47.02-13.62,1.59-7.04,5.8-11.98,12.19-14.3,2.03-.73,3.57-1.61,4.58-2.62.81-.81,1.07-1.95.69-3.05-.39-1.12-1.31-1.87-2.47-2h0c-.43-.05-.89-.08-1.37-.08Z"/>
  <path class="cls-7" d="M22.03,139.79c-.19,0-.39-.02-.58-.07-1.23-.32-1.97-1.57-1.65-2.8.14-.53,1.43-5.25,4.82-7.65,6.06-4.29,18.45-4.34,19.01-4.34h0c1.27,0,2.3,1.03,2.3,2.31,0,1.27-1.03,2.3-2.31,2.3h0c-3.18,0-12.31.63-16.35,3.49-1.71,1.21-2.76,4.05-3.02,5.05-.27,1.03-1.21,1.72-2.23,1.72Z"/>
  <path class="cls-6" d="M47.67,141.44s-10.33,2.83-16.87,1.45-8.48,6.86-3.07,9.44c5.41,2.58,13.32,8.48,13,13.4,0,0,6.62-7.67,6.94-24.3Z"/>
  <path class="cls-7" d="M40.72,168.04c-.29,0-.59-.06-.87-.17-.92-.38-1.49-1.3-1.43-2.28.17-2.56-4.59-7.78-11.69-11.17-4.07-1.94-5.12-6.13-4.06-9.26.99-2.94,4.04-5.47,8.6-4.52,5.93,1.24,15.69-1.39,15.79-1.42.7-.19,1.45-.04,2.02.4.57.45.9,1.14.89,1.86-.34,17.26-7.21,25.42-7.5,25.76-.45.52-1.09.8-1.75.8ZM29.38,145.04c-1.61,0-2.17,1.07-2.34,1.59-.4,1.17-.04,2.81,1.68,3.63,3.23,1.54,6.68,3.86,9.22,6.21,1.42,1.31,2.55,2.6,3.38,3.87.24-.5.49-1.05.73-1.64,1.24-2.99,2.72-7.77,3.18-14.32-3.73.78-10.13,1.77-14.91.77-.35-.07-.66-.1-.94-.1Z"/>
  <path class="cls-9" d="M150.24,180.28c-1.98-1.19-4.49-1.01-6.37.32-4.53,3.21-15.84,11.6-27.6,8.65s-9.19-18.03-19.77-24.78c-6.03-3.85-28.81-6.52-28.3,16.61.69,30.96,40.53,37.22,40.53,37.22,0,0,31.98,6.11,43.1-20.69,3.48-8.31,1.08-15.74-1.59-17.34Z"/>
  <path class="cls-7" d="M116.49,221.21c-4.56,0-7.73-.56-8.16-.64-.78-.13-10.63-1.79-20.71-7.24-13.91-7.53-21.43-18.66-21.73-32.2-.14-6.24,1.32-14.58,9.03-18.92,7.63-4.29,18.33-2.54,22.81.32,5.45,3.47,7.66,8.82,9.61,13.54,2.21,5.34,3.95,9.56,9.47,10.94,10.37,2.59,20.82-4.82,25.28-7.99l.44-.31c2.67-1.89,6.16-2.05,8.89-.42,2.04,1.22,3.6,4.12,4.19,7.76.45,2.79.53,7.22-1.66,12.44-4.85,11.7-14.33,19.22-27.4,21.76-3.68.72-7.15.94-10.05.94ZM85.7,164.24c-2.89,0-5.93.54-8.51,2-4.59,2.59-6.84,7.57-6.68,14.8.27,11.92,6.73,21.4,19.21,28.19,9.59,5.21,19.28,6.79,19.37,6.81.02,0,.05,0,.07.01.07.01,7.79,1.43,16.65-.32,11.57-2.29,19.61-8.68,23.89-18.99,3.25-7.75.61-13.73-.64-14.48,0,0,0,0,0,0-1.16-.7-2.67-.61-3.85.23l-.43.31c-4.21,2.99-13.22,9.39-23.43,9.39-1.85,0-3.73-.21-5.63-.68-7.78-1.94-10.35-8.16-12.62-13.65-1.86-4.49-3.61-8.73-7.83-11.42-1.76-1.12-5.51-2.19-9.56-2.19Z"/>
  <line class="cls-9" x1="98.7" y1="167.76" x2="75.12" y2="199.21"/>
  <path class="cls-7" d="M75.12,201.51c-.48,0-.97-.15-1.38-.46-1.02-.76-1.22-2.21-.46-3.23l23.58-31.44c.76-1.02,2.21-1.22,3.23-.46,1.02.76,1.22,2.21.46,3.23l-23.58,31.44c-.45.6-1.15.92-1.85.92Z"/>
  <line class="cls-9" x1="110.89" y1="186.53" x2="97.26" y2="214.77"/>
  <path class="cls-7" d="M97.26,217.07c-.34,0-.68-.07-1-.23-1.15-.55-1.63-1.93-1.07-3.08l13.64-28.24c.55-1.15,1.93-1.63,3.08-1.07,1.15.55,1.63,1.93,1.07,3.08l-13.64,28.24c-.4.82-1.22,1.3-2.08,1.3Z"/>
  <line class="cls-9" x1="125.33" y1="189.58" x2="129.18" y2="216.21"/>
  <path class="cls-7" d="M129.18,218.52c-1.13,0-2.11-.83-2.28-1.98l-3.85-26.63c-.18-1.26.69-2.43,1.95-2.61,1.26-.18,2.43.69,2.61,1.95l3.85,26.63c.18,1.26-.69,2.43-1.95,2.61-.11.02-.22.02-.33.02Z"/>
  <line class="cls-9" x1="140.25" y1="184.61" x2="150.2" y2="199.05"/>
  <path class="cls-7" d="M150.2,201.35c-.73,0-1.45-.35-1.9-1l-9.95-14.44c-.72-1.05-.46-2.48.59-3.21,1.05-.72,2.48-.46,3.21.59l9.95,14.44c.72,1.05.46,2.48-.59,3.21-.4.28-.85.41-1.31.41Z"/>
</svg>