<?xml version="1.0" encoding="UTF-8"?>
<svg id="Calque_1" data-name="Calque 1" xmlns="http://www.w3.org/2000/svg" viewBox="0 0 192.51 272.18">
  <defs>
    <style>
      .cls-1 {
        fill: #f7fbfc;
      }

      .cls-2 {
        fill: #2b4a6b;
      }

      .cls-3 {
        fill: #f6fbfc;
      }

      .cls-4 {
        fill: #47babd;
      }

      .cls-5 {
        fill: #ed7088;
      }

      .cls-6 {
        fill: #f5b6be;
      }

      .cls-7 {
        fill: #f5fafc;
      }

      .cls-8 {
        fill: #25848e;
      }
    </style>
  </defs>
  <g>
    <polygon class="cls-6" points="163.62 71.79 160.7 190.1 53.72 176.15 58.38 57.55 163.62 71.79"/>
    <path class="cls-2" d="M160.7,192.5c-.1,0-.21,0-.31-.02l-106.97-13.95c-1.23-.16-2.14-1.23-2.09-2.47l4.65-118.6c.03-.68.34-1.31.85-1.74s1.19-.63,1.87-.54l105.24,14.24c1.21.16,2.11,1.21,2.08,2.44l-2.92,118.31c-.02.68-.32,1.32-.84,1.76-.44.37-.99.58-1.56.58ZM56.21,174.05l102.15,13.32,2.8-113.5-100.49-13.6-4.46,113.77Z"/>
  </g>
  <g>
    <path class="cls-4" d="M169.73,76.39s16.93-11.97,14.56-19.25c-1.37-4.21-12.48-2.86-12.48-2.86,7.05-4.03,26.36-17.23,14.58-28.59-13.36-8.52-33.38,9.45-33.38,9.45C181.88,1.73,135.55,2.4,135.55,2.4c-58.08,1.34-92.21,34.46-96.28,36.62-2.62,1.39-3.45-.06-3.71-1.27-.13-.61-.11-1.24,0-1.86.58-2.87,2.92-15.31-.12-13.16-3.44,2.42-15.27,26.09-16.8,28.38-.05.07-.1.14-.15.21-1.14,1.52-3.39,1.67-4.8.39-2.16-1.97-7.18-6.16-8.17-3.78-.6,2.75,1.27,7.6,3.18,11.56,1.43,2.96,3.19,5.74,5.18,8.36,2.35,3.1,5.91,9.64,2.66,18.1-1.56,4.06-2.48,8.34-2.51,12.69-.07,10.64,2.69,20.06,2.69,20.06l35.48-1.15,12.78-32.7,31.22-3.19,73.51-5.26Z"/>
    <path class="cls-2" d="M16.74,121.1c-1.06,0-2-.7-2.3-1.73-.12-.4-2.86-9.88-2.78-20.75.03-4.44.93-9,2.67-13.53,2.82-7.34-.25-13.04-2.34-15.79-2.19-2.89-4.02-5.84-5.43-8.77-2.88-5.99-3.98-10.28-3.36-13.11.03-.14.07-.28.13-.41.45-1.08,1.35-1.85,2.47-2.1,1.5-.33,3.93-.06,9.53,5.02.2.18.46.27.72.24.16-.02.38-.08.54-.29.02-.03.05-.06.07-.1.35-.53,1.67-2.99,3.06-5.6,7.39-13.83,11.86-21.66,14.36-23.41,1.18-.83,2.53-.91,3.61-.21,1.64,1.07,2.03,3.34,1.45,8.39-.34,3-.96,6.19-1.2,7.42-.05.24-.06.46-.05.67.08-.04.17-.08.27-.13.35-.19,1.6-1.15,2.8-2.09,5.2-4.04,16.03-12.45,31.95-19.99C92.59,5.49,113.65.51,135.49,0c.95-.01,22.89-.2,28.23,11.26,1.89,4.04,1.45,8.87-1.27,14.41,7.39-4.02,17.2-7.13,25.23-2.01.13.09.26.18.38.3,3.4,3.28,4.87,7,4.36,11.05-.85,6.78-7.24,12.89-12.68,16.94,3.77.58,6.06,2.07,6.83,4.44,1.31,4.01-.97,8.85-6.98,14.8-4.03,4-8.3,7.02-8.47,7.15-.36.25-.78.4-1.21.43l-73.47,5.26-29.72,3.04-12.25,31.34c-.35.89-1.2,1.49-2.16,1.53l-35.48,1.15s-.05,0-.08,0ZM7.93,50.24c.23,1.52.96,4.08,2.95,8.22,1.27,2.65,2.93,5.32,4.93,7.95,2.68,3.54,6.64,10.89,2.99,20.41-1.53,4-2.32,7.98-2.35,11.84-.05,7.51,1.37,14.43,2.13,17.59l31.98-1.04,12.2-31.23c.33-.84,1.1-1.42,1.99-1.51l31.22-3.19s.05,0,.07,0l72.83-5.21c6.19-4.5,14.33-12.46,13.12-16.16-.09-.28-1.12-1.12-4.57-1.35-2.7-.18-5.31.13-5.34.13-1.13.14-2.21-.55-2.57-1.63-.36-1.08.1-2.27,1.09-2.84,7.36-4.21,16.24-11.38,17.03-17.77.3-2.44-.6-4.68-2.76-6.83-11.67-7.12-30.1,9.17-30.29,9.34-.94.84-2.38.81-3.28-.08-.9-.89-.96-2.32-.13-3.28,5.23-6.05,10.89-14.47,8.18-20.28-3.34-7.18-18.32-8.57-23.79-8.49-49.65,1.15-81.3,25.73-91.7,33.81-1.79,1.39-2.77,2.15-3.49,2.53-1.78.95-3.38,1.11-4.74.47-.87-.41-2.01-1.32-2.44-3.36-.19-.91-.19-1.86,0-2.83.6-3.01.99-5.59,1.2-7.55-3.23,5.02-8.24,14.4-10.47,18.57-1.85,3.47-2.84,5.31-3.3,6-.07.11-.15.22-.23.32-.93,1.24-2.36,2.04-3.93,2.19-1.6.15-3.21-.38-4.4-1.47-1.87-1.7-3.25-2.7-4.17-3.25ZM169.73,76.39h0,0ZM169.73,76.39h0,0ZM168.34,74.43h0Z"/>
  </g>
  <path class="cls-1" d="M54.75,28.56s92.44-38.66,104.13-3.09l3.78-8.59-2.75-7.9-11.51-4.64-34.37-.86-48.11,16.32-11.17,8.76Z"/>
  <path class="cls-1" d="M153.01,35.14s30.75-12.64,36.18,1.71l1.24-6.78-8.25-6.66-12.31,2.03-16.86,9.7Z"/>
  <path class="cls-2" d="M16.74,121.1c-1.06,0-2-.7-2.3-1.73-.12-.4-2.86-9.88-2.78-20.75.03-4.44.93-9,2.67-13.53,2.82-7.34-.25-13.04-2.34-15.79-2.19-2.89-4.02-5.84-5.43-8.77-2.88-5.99-3.98-10.28-3.36-13.11.03-.14.07-.28.13-.41.45-1.08,1.35-1.85,2.47-2.1,1.5-.33,3.93-.06,9.53,5.02.2.18.46.27.72.24.16-.02.38-.08.54-.29.02-.03.05-.06.07-.1.35-.53,1.67-2.99,3.06-5.6,7.39-13.83,11.86-21.66,14.36-23.41,1.18-.83,2.53-.91,3.61-.21,1.64,1.07,2.03,3.34,1.45,8.39-.34,3-.96,6.19-1.2,7.42-.05.24-.06.46-.05.67.08-.04.17-.08.27-.13.35-.19,1.6-1.15,2.8-2.09,5.2-4.04,16.03-12.45,31.95-19.99C92.59,5.49,113.65.51,135.49,0c.95-.01,22.89-.2,28.23,11.26,1.89,4.04,1.45,8.87-1.27,14.41,7.39-4.02,17.2-7.13,25.23-2.01.13.09.26.18.38.3,3.4,3.28,4.87,7,4.36,11.05-.85,6.78-7.24,12.89-12.68,16.94,3.77.58,6.06,2.07,6.83,4.44,1.31,4.01-.97,8.85-6.98,14.8-4.03,4-8.3,7.02-8.47,7.15-.36.25-.78.4-1.21.43l-73.47,5.26-29.72,3.04-12.25,31.34c-.35.89-1.2,1.49-2.16,1.53l-35.48,1.15s-.05,0-.08,0ZM7.93,50.24c.23,1.52.96,4.08,2.95,8.22,1.27,2.65,2.93,5.32,4.93,7.95,2.68,3.54,6.64,10.89,2.99,20.41-1.53,4-2.32,7.98-2.35,11.84-.05,7.51,1.37,14.43,2.13,17.59l31.98-1.04,12.2-31.23c.33-.84,1.1-1.42,1.99-1.51l31.22-3.19s.05,0,.07,0l72.83-5.21c6.19-4.5,14.33-12.46,13.12-16.16-.09-.28-1.12-1.12-4.57-1.35-2.7-.18-5.31.13-5.34.13-1.13.14-2.21-.55-2.57-1.63-.36-1.08.1-2.27,1.09-2.84,7.36-4.21,16.24-11.38,17.03-17.77.3-2.44-.6-4.68-2.76-6.83-11.67-7.12-30.1,9.17-30.29,9.34-.94.84-2.38.81-3.28-.08-.9-.89-.96-2.32-.13-3.28,5.23-6.05,10.89-14.47,8.18-20.28-3.34-7.18-18.32-8.57-23.79-8.49-49.65,1.15-81.3,25.73-91.7,33.81-1.79,1.39-2.77,2.15-3.49,2.53-1.78.95-3.38,1.11-4.74.47-.87-.41-2.01-1.32-2.44-3.36-.19-.91-.19-1.86,0-2.83.6-3.01.99-5.59,1.2-7.55-3.23,5.02-8.24,14.4-10.47,18.57-1.85,3.47-2.84,5.31-3.3,6-.07.11-.15.22-.23.32-.93,1.24-2.36,2.04-3.93,2.19-1.6.15-3.21-.38-4.4-1.47-1.87-1.7-3.25-2.7-4.17-3.25ZM169.73,76.39h0,0ZM169.73,76.39h0,0ZM168.34,74.43h0Z"/>
  <path class="cls-6" d="M38.47,255.76s41.51,27.44,93.37,11.25l1.97-33.75-88.59-21.09c.3,14.53-2.12,30.71-6.75,43.59Z"/>
  <path class="cls-2" d="M131.84,269.41s-.09,0-.14,0c-1.32-.08-2.33-1.21-2.26-2.54l1.85-31.74-83.58-19.9c.42,24.65-6.74,40.81-7.06,41.52-.55,1.21-1.97,1.75-3.18,1.2-1.21-.55-1.74-1.97-1.2-3.17h0s1.93-4.34,3.69-11.71c1.61-6.78,3.42-17.63,2.85-30.79-.03-.75.29-1.48.87-1.95.58-.48,1.35-.66,2.08-.48l88.59,21.09c1.13.27,1.91,1.31,1.84,2.47l-1.97,33.75c-.07,1.28-1.13,2.26-2.39,2.26Z"/>
  <path class="cls-2" d="M94.01,272.18c-.08,0-.16,0-.24-.01-1.32-.13-2.28-1.3-2.16-2.62l.46-4.72c.07-.72.46-1.37,1.06-1.77,2.29-1.51,3.48-3.05,3.55-4.58.09-1.96-1.72-3.86-2.42-4.43-.61-.48-.94-1.22-.9-2l1.45-28.38c.07-1.32,1.2-2.34,2.52-2.27,1.32.07,2.34,1.2,2.27,2.52l-1.39,27.25c1.31,1.33,3.41,4.01,3.27,7.49-.12,2.87-1.71,5.46-4.74,7.73l-.36,3.63c-.12,1.24-1.17,2.17-2.39,2.17Z"/>
  <g>
    <path class="cls-4" d="M39.31,113.94s12.48,38.45-6.66,66.25c0,0-11.39,13.3,6.88,33.23,0,0,27.68,31.19,68.36,31.68,0,0,51.1-4.16,41.78-20.81,0,0,11.91.87,20.18-3.02,0,0,6.22-2.86,8.33-7.76.84-1.96-.2-4.26-2.23-4.91-1.68-.54-3.47-.46-3.47-.46,0,0,6.23-3.15,9.64-7.3,2.04-2.48,1.75-6.13-.62-8.3-5.88-5.4-15.37-10.67-15.37-10.67,0,0-25.34,3.04-58.74-15.72,0,0-12.58-3.2-28.59-5.03,0,0-11.89.23-16.01-11.44-2.52-9.84-3.66-30.65-3.66-30.65,0,0,7.52.53,11.96-1.7,2.01-1.01,3.29-3.11,3.17-5.36-.28-5.24-7.58-6-7.58-6,0,0,7.69.3,13-1.91,5.07-2.11,5.62-9.16.83-11.85-.73-.41-1.27-.53-1.27-.53l-13.17-13.07"/>
    <path class="cls-2" d="M107.89,247.5s-.02,0-.03,0c-21.59-.26-39.5-9.07-50.72-16.42-11.98-7.85-18.94-15.55-19.39-16.06-5.54-6.04-11.92-15.44-10.9-25.93.58-5.93,3.31-9.63,3.88-10.35,5.23-7.63,11.2-21.09,10.03-41.98-.7-12.63-3.71-22-3.74-22.09-.41-1.26.28-2.61,1.54-3.02,1.26-.41,2.61.28,3.02,1.54.13.4,3.23,10.06,3.96,23.31.98,17.66-2.8,33.23-10.93,45.04-.05.07-.1.14-.15.2-.39.47-9.67,12.06,6.82,30.05,0,0,.02.02.03.03.07.08,6.93,7.73,18.57,15.32,10.64,6.95,27.58,15.28,47.91,15.55,1.05-.09,9.54-.87,18.52-2.8,16.08-3.45,20.43-7.62,21.59-9.79.47-.89.96-2.34-.33-4.64-.43-.77-.41-1.72.07-2.46s1.32-1.17,2.2-1.11c.11,0,11.4.77,18.99-2.8.07-.03,5.43-2.56,7.14-6.53.18-.43.07-.81-.02-1-.09-.19-.3-.53-.74-.67-1.22-.39-2.62-.35-2.63-.35-1.13.05-2.14-.69-2.43-1.79s.23-2.24,1.24-2.75c.06-.03,5.82-2.98,8.87-6.69,1.22-1.49,1.05-3.69-.39-5.01-4.74-4.36-12.1-8.72-14.28-9.98-2.08.16-8,.4-16.67-.91-9.73-1.47-24.98-5.27-42.43-15.02-1.99-.49-13.6-3.25-27.84-4.88-.77,0-3.79-.14-7.22-1.52-3.64-1.46-8.49-4.65-10.92-11.52-.02-.07-.04-.13-.06-.2-2.55-9.95-3.68-30.26-3.73-31.12-.04-.69.22-1.36.71-1.84.49-.48,1.17-.73,1.85-.68,1.91.13,7.57.13,10.72-1.45,1.17-.59,1.92-1.83,1.85-3.09-.16-3.07-5.38-3.74-5.44-3.75-1.28-.14-2.23-1.28-2.13-2.57.1-1.29,1.19-2.27,2.48-2.22.07,0,7.24.25,11.99-1.73,1.56-.65,2.55-2.05,2.65-3.74.09-1.6-.68-3.03-2.07-3.8-.33-.19-.59-.27-.66-.29-.46-.09-.79-.3-1.13-.63l-13.17-13.07c-.94-.93-.95-2.45-.01-3.39.93-.94,2.45-.95,3.39-.01l12.77,12.67c.32.12.72.3,1.15.54,2.99,1.67,4.72,4.84,4.52,8.27-.2,3.51-2.35,6.54-5.59,7.89-1.7.71-3.59,1.18-5.43,1.5.89,1.18,1.39,2.56,1.47,4.08.17,3.18-1.59,6.18-4.49,7.63-3.21,1.61-7.65,1.96-10.48,2.01.39,5.81,1.5,20,3.4,27.5,3.5,9.73,13.26,9.74,13.68,9.74.1,0,.21,0,.31.02,15.99,1.83,28.79,5.06,28.91,5.09.2.05.4.13.58.23,16.84,9.46,31.52,13.15,40.86,14.58,10.13,1.55,16.36.86,16.42.85.5-.06,1.01.04,1.45.28.4.22,9.81,5.47,15.83,11,3.31,3.04,3.69,8.14.85,11.59-1.56,1.9-3.61,3.58-5.48,4.9.78.6,1.41,1.39,1.83,2.3.71,1.55.73,3.34.06,4.89-2.44,5.68-9.24,8.86-9.53,8.99-5.92,2.78-13.41,3.3-17.77,3.33.38,2.33-.22,4.24-.94,5.59-2.8,5.25-10.93,9.25-24.86,12.24-9.85,2.11-18.82,2.86-19.2,2.89-.06,0-.13,0-.19,0ZM32.65,180.19h0,0Z"/>
  </g>
  <g>
    <g>
      <ellipse class="cls-8" cx="157.01" cy="83.5" rx="18.88" ry="7.33"/>
      <path class="cls-2" d="M157.01,76.17c10.43,0,18.88,3.28,18.88,7.33s-8.45,7.33-18.88,7.33-18.88-3.28-18.88-7.33,8.45-7.33,18.88-7.33M157.01,71.37c-5.62,0-10.98.88-15.09,2.47-2.29.89-4.16,1.99-5.56,3.27-2.51,2.3-3.04,4.75-3.04,6.39s.53,4.09,3.04,6.39c1.39,1.28,3.26,2.38,5.56,3.27,4.11,1.59,9.46,2.47,15.09,2.47s10.98-.88,15.09-2.47c2.29-.89,4.16-1.99,5.56-3.27,2.51-2.3,3.04-4.75,3.04-6.39s-.53-4.09-3.04-6.39c-1.39-1.28-3.26-2.38-5.56-3.27-4.11-1.59-9.46-2.47-15.09-2.47h0Z"/>
    </g>
    <path class="cls-1" d="M144.69,77.2c-.68.46,26.99.21,30.82,9.76l2.57-3.83-1.81-4.45-6.19-3.9-14.33-1.74-11.06,4.16Z"/>
    <path class="cls-2" d="M157.01,76.17c10.43,0,18.88,3.28,18.88,7.33s-8.45,7.33-18.88,7.33-18.88-3.28-18.88-7.33,8.45-7.33,18.88-7.33M157.01,71.37c-5.62,0-10.98.88-15.09,2.47-2.29.89-4.16,1.99-5.56,3.27-2.51,2.3-3.04,4.75-3.04,6.39s.53,4.09,3.04,6.39c1.39,1.28,3.26,2.38,5.56,3.27,4.11,1.59,9.46,2.47,15.09,2.47s10.98-.88,15.09-2.47c2.29-.89,4.16-1.99,5.56-3.27,2.51-2.3,3.04-4.75,3.04-6.39s-.53-4.09-3.04-6.39c-1.39-1.28-3.26-2.38-5.56-3.27-4.11-1.59-9.46-2.47-15.09-2.47h0Z"/>
    <g>
      <line class="cls-4" x1="152.62" y1="74.29" x2="154.38" y2="91.99"/>
      <rect class="cls-2" x="151.1" y="74.25" width="4.8" height="17.78" transform="translate(-7.48 15.61) rotate(-5.68)"/>
    </g>
    <g>
      <line class="cls-4" x1="163.19" y1="74.64" x2="161.69" y2="91.9"/>
      <rect class="cls-2" x="153.78" y="80.87" width="17.32" height="4.8" transform="translate(65.44 237.91) rotate(-85.04)"/>
    </g>
    <g>
      <line class="cls-4" x1="170.93" y1="76.93" x2="169.88" y2="91.28"/>
      <rect class="cls-2" x="163.21" y="81.71" width="14.39" height="4.8" transform="translate(74.02 247.88) rotate(-85.79)"/>
    </g>
  </g>
  <g>
    <path class="cls-4" d="M133.88,67.64s16.07,9.48,12.62,18.66c-2.13,4.7-11.72,3.08-11.72,3.08,0,0,8.21,8.51.49,12.32-7.72,3.81-21.7-10.81-21.7-10.81"/>
    <path class="cls-2" d="M132.39,104.73c-3.43,0-7.54-1.69-12.26-5.05-4.59-3.27-8.15-6.97-8.3-7.13-.92-.96-.88-2.48.08-3.39.96-.92,2.48-.88,3.39.08.03.03,3.43,3.57,7.67,6.57,4.97,3.53,8.97,4.86,11.24,3.74,1.72-.85,1.88-1.76,1.93-2.06.36-2.05-1.92-5.23-3.09-6.44-.71-.75-.87-1.87-.39-2.78.48-.91,1.5-1.42,2.52-1.25.02,0,2.22.36,4.58.19,1.41-.1,3.85-.48,4.53-1.83.69-1.95.46-5.26-4.43-10.07-3.33-3.29-7.16-5.57-7.2-5.59-1.14-.67-1.52-2.15-.84-3.29.67-1.14,2.14-1.52,3.29-.85.17.1,4.31,2.56,8.07,6.24,3.78,3.71,7.82,9.38,5.58,15.33-.02.05-.04.1-.06.14-1.61,3.55-5.69,4.56-9.1,4.74.95,1.84,1.66,4.06,1.28,6.28-.29,1.65-1.31,3.95-4.54,5.55-1.19.59-2.51.88-3.94.88ZM146.5,86.29h0,0Z"/>
  </g>
  <g>
    <g>
      <ellipse class="cls-8" cx="94.29" cy="81.33" rx="27.6" ry="10.72"/>
      <path class="cls-2" d="M94.29,70.62c15.25,0,27.6,4.8,27.6,10.72s-12.36,10.72-27.6,10.72-27.6-4.8-27.6-10.72,12.36-10.72,27.6-10.72M94.29,65.82c-7.95,0-15.5,1.23-21.26,3.46-9.7,3.77-11.15,9.17-11.15,12.05s1.45,8.29,11.15,12.05c5.75,2.23,13.3,3.46,21.26,3.46s15.5-1.23,21.26-3.46c9.7-3.77,11.15-9.17,11.15-12.05s-1.45-8.29-11.15-12.05c-5.75-2.23-13.3-3.46-21.26-3.46h0Z"/>
    </g>
    <path class="cls-3" d="M75.16,72.86s43.44-1.92,47.19,11.95l2.55-4.57-7.38-7.91-25.83-4.92-16.52,5.45Z"/>
    <path class="cls-2" d="M94.29,70.62c15.25,0,27.6,4.8,27.6,10.72s-12.36,10.72-27.6,10.72-27.6-4.8-27.6-10.72,12.36-10.72,27.6-10.72M94.29,65.82c-7.95,0-15.5,1.23-21.26,3.46-9.7,3.77-11.15,9.17-11.15,12.05s1.45,8.29,11.15,12.05c5.75,2.23,13.3,3.46,21.26,3.46s15.5-1.23,21.26-3.46c9.7-3.77,11.15-9.17,11.15-12.05s-1.45-8.29-11.15-12.05c-5.75-2.23-13.3-3.46-21.26-3.46h0Z"/>
    <g>
      <line class="cls-4" x1="78.68" y1="70.15" x2="83.52" y2="93.39"/>
      <rect class="cls-2" x="78.7" y="69.91" width="4.8" height="23.74" transform="translate(-14.97 18.26) rotate(-11.77)"/>
    </g>
    <g>
      <line class="cls-4" x1="91.44" y1="68.13" x2="92.59" y2="93.84"/>
      <rect class="cls-2" x="89.62" y="68.12" width="4.8" height="25.73" transform="translate(-3.51 4.17) rotate(-2.55)"/>
    </g>
    <g>
      <line class="cls-4" x1="103.68" y1="68.92" x2="102.45" y2="93.04"/>
      <rect class="cls-2" x="90.99" y="78.58" width="24.15" height="4.8" transform="translate(16.93 179.78) rotate(-87.08)"/>
    </g>
    <g>
      <line class="cls-4" x1="114.16" y1="71.65" x2="114.24" y2="90.31"/>
      <rect class="cls-2" x="111.8" y="71.65" width="4.8" height="18.66" transform="translate(-.38 .54) rotate(-.27)"/>
    </g>
  </g>
  <g>
    <circle class="cls-7" cx="145.81" cy="136.94" r="24.92"/>
    <path class="cls-2" d="M145.81,164.26c-15.06,0-27.32-12.26-27.32-27.32s12.26-27.32,27.32-27.32,27.32,12.26,27.32,27.32-12.26,27.32-27.32,27.32ZM145.81,114.42c-12.42,0-22.52,10.1-22.52,22.52s10.1,22.52,22.52,22.52,22.52-10.1,22.52-22.52-10.1-22.52-22.52-22.52Z"/>
  </g>
  <ellipse class="cls-2" cx="147.16" cy="132.43" rx="13.13" ry="12.78"/>
  <circle class="cls-7" cx="136.54" cy="125.17" r="5.03"/>
  <g>
    <circle class="cls-7" cx="100.63" cy="135.5" r="28.53"/>
    <path class="cls-2" d="M100.63,166.43c-17.05,0-30.93-13.87-30.93-30.93s13.87-30.93,30.93-30.93,30.93,13.87,30.93,30.93-13.87,30.93-30.93,30.93ZM100.63,109.37c-14.41,0-26.13,11.72-26.13,26.13s11.72,26.13,26.13,26.13,26.13-11.72,26.13-26.13-11.72-26.13-26.13-26.13Z"/>
  </g>
  <ellipse class="cls-2" cx="99.78" cy="131.04" rx="13.13" ry="12.78"/>
  <circle class="cls-7" cx="89.8" cy="122.58" r="5.03"/>
  <g>
    <path class="cls-6" d="M125.94,149.3s6.02,15.8,25.18,9.28c19.16-6.52,25.12-12.51,28.65-11.7,3.53.82,8.83,7.61,5.43,17.66s-17.53,18.61-35.6,17.12c-18.07-1.49-26.9-17.25-26.9-17.25"/>
    <path class="cls-2" d="M153.75,184.23c-1.43,0-2.88-.06-4.34-.18-19.12-1.58-28.41-17.78-28.8-18.47-.65-1.16-.24-2.62.92-3.27,1.16-.65,2.62-.24,3.27.92.08.14,8.48,14.67,25,16.04,5.63.47,14.01.15,22-3.97,5.56-2.87,9.62-7.07,11.12-11.53,1.94-5.74.53-9.64-.49-11.46-1.04-1.85-2.39-2.9-3.21-3.09-.82-.19-3.39,1.13-6.12,2.53-4.35,2.23-10.94,5.6-21.22,9.1-10.93,3.72-18.02.64-22.05-2.59-4.36-3.5-6.07-7.91-6.14-8.1-.47-1.24.15-2.63,1.39-3.1,1.24-.47,2.62.15,3.09,1.38.03.07,1.43,3.54,4.82,6.2,4.47,3.5,10.31,4.07,17.34,1.67,9.95-3.39,16.35-6.66,20.58-8.83,4.28-2.19,6.87-3.52,9.39-2.93,2.37.55,4.73,2.58,6.32,5.43,1.4,2.51,3.38,7.85.85,15.34-1.93,5.7-6.71,10.76-13.47,14.25-5.96,3.08-12.9,4.67-20.26,4.67Z"/>
  </g>
  <g>
    <ellipse class="cls-6" cx="26.11" cy="148.83" rx="23.71" ry="32.96"/>
    <path class="cls-2" d="M26.11,184.19c-7.13,0-13.77-3.78-18.71-10.65-4.77-6.63-7.4-15.4-7.4-24.71s2.63-18.08,7.4-24.71c4.94-6.87,11.59-10.65,18.71-10.65s13.77,3.78,18.71,10.65c4.77,6.63,7.4,15.4,7.4,24.71s-2.63,18.08-7.4,24.71c-4.94,6.87-11.59,10.65-18.71,10.65ZM26.11,118.27c-11.75,0-21.31,13.71-21.31,30.56s9.56,30.56,21.31,30.56,21.31-13.71,21.31-30.56-9.56-30.56-21.31-30.56Z"/>
  </g>
  <g>
    <path class="cls-5" d="M27.39,116.01c4.55.51,6.53,6.12,3.28,9.35-1.19,1.18-2.98,2.32-5.64,3.28-13.82,5-12.24,21.32-11.18,26.32.05.25.09.5.12.76.71,6.89-9.58,8.33-10.92,1.53-.45-2.3-.74-5.33-.57-9.24.33-7.35,2.46-14.53,6.38-20.75,6.6-10.46,13.92-11.76,18.53-11.24Z"/>
    <path class="cls-2" d="M8.43,164.07c-3.4,0-6.89-2.04-7.74-6.36-.57-2.88-.77-6.19-.61-9.81.36-7.91,2.69-15.49,6.75-21.93,3.19-5.05,6.89-8.62,10.99-10.61,3.15-1.53,6.46-2.11,9.83-1.73h0c3.04.34,5.56,2.36,6.57,5.27,1.01,2.89.29,6.02-1.87,8.17-1.55,1.54-3.74,2.83-6.51,3.83-13.2,4.78-10.05,21.66-9.65,23.56.07.33.12.66.16,1,.5,4.86-2.97,7.96-6.67,8.51-.41.06-.83.09-1.25.09ZM25.69,118.32c-4.1,0-9.61,1.99-14.8,10.22-3.62,5.73-5.7,12.5-6.01,19.58-.15,3.24.03,6.16.52,8.67.42,2.14,2.19,2.65,3.57,2.44.48-.07,2.88-.57,2.6-3.27-.02-.17-.04-.34-.08-.51-.36-1.71-1.42-7.77.02-14.18,1.65-7.33,6.04-12.48,12.69-14.89,2.11-.76,3.71-1.68,4.77-2.73.85-.84,1.12-2.03.71-3.18-.41-1.17-1.37-1.94-2.58-2.08h0c-.45-.05-.93-.08-1.43-.08Z"/>
  </g>
  <path class="cls-2" d="M22.94,145.57c-.2,0-.4-.03-.6-.08-1.28-.33-2.05-1.64-1.72-2.92.14-.55,1.49-5.47,5.02-7.97,6.31-4.46,19.21-4.52,19.8-4.52h0c1.33,0,2.4,1.08,2.4,2.4,0,1.33-1.08,2.4-2.4,2.4h0c-3.31,0-12.82.66-17.03,3.64-1.78,1.26-2.87,4.22-3.15,5.25-.28,1.08-1.26,1.79-2.32,1.79Z"/>
  <g>
    <path class="cls-5" d="M49.64,147.28s-10.76,2.94-17.57,1.51c-6.81-1.43-8.83,7.15-3.19,9.84,5.63,2.69,13.87,8.83,13.53,13.95,0,0,6.89-7.99,7.23-25.3Z"/>
    <path class="cls-2" d="M42.41,174.99c-.31,0-.61-.06-.91-.18-.95-.39-1.55-1.35-1.49-2.38.17-2.67-4.78-8.1-12.17-11.63-4.24-2.02-5.33-6.38-4.23-9.65,1.03-3.06,4.2-5.7,8.95-4.7,6.17,1.3,16.34-1.45,16.44-1.48.73-.2,1.51-.04,2.11.42.6.46.94,1.18.93,1.94-.35,17.98-7.51,26.47-7.81,26.82-.47.54-1.13.83-1.82.83ZM30.6,151.04c-1.68,0-2.26,1.11-2.44,1.65-.41,1.22-.04,2.92,1.75,3.78,3.37,1.61,6.95,4.02,9.6,6.46,1.48,1.37,2.65,2.71,3.52,4.03.25-.52.51-1.09.77-1.71,1.29-3.11,2.83-8.09,3.31-14.91-3.89.81-10.55,1.85-15.52.8-.36-.08-.69-.11-.98-.11Z"/>
  </g>
  <g>
    <path class="cls-7" d="M156.45,187.73c-2.06-1.24-4.67-1.05-6.63.34-4.72,3.34-16.5,12.07-28.75,9.01-12.76-3.19-9.57-18.78-20.58-25.8-6.28-4.01-30.01-6.79-29.47,17.29.72,32.24,42.2,38.76,42.2,38.76,0,0,33.3,6.36,44.88-21.54,3.63-8.65,1.12-16.39-1.65-18.06Z"/>
    <path class="cls-2" d="M121.31,230.36c-4.75,0-8.05-.58-8.5-.66-.81-.13-11.07-1.87-21.56-7.54-14.49-7.84-22.31-19.43-22.63-33.53-.14-6.49,1.37-15.18,9.4-19.7,7.94-4.47,19.09-2.64,23.76.33,5.67,3.62,7.98,9.19,10.01,14.1,2.3,5.56,4.12,9.95,9.87,11.39,10.8,2.7,21.68-5.02,26.32-8.32l.46-.32c2.78-1.97,6.41-2.14,9.25-.44,2.12,1.27,3.75,4.29,4.36,8.08.47,2.91.55,7.52-1.73,12.96-5.05,12.18-14.92,20.02-28.54,22.66-3.84.75-7.45.98-10.47.98ZM89.24,171.03c-3.01,0-6.18.57-8.87,2.08-4.78,2.69-7.13,7.88-6.96,15.41.28,12.41,7.01,22.28,20,29.35,9.98,5.43,20.07,7.07,20.17,7.09.02,0,.05,0,.08.01.08.01,8.11,1.49,17.33-.34,12.05-2.38,20.42-9.03,24.88-19.77,3.39-8.07.63-14.3-.67-15.08,0,0,0,0,0,0-1.21-.72-2.78-.63-4.01.24l-.45.32c-4.39,3.12-13.77,9.78-24.4,9.78-1.92,0-3.88-.22-5.87-.71-8.1-2.02-10.78-8.5-13.14-14.22-1.93-4.67-3.76-9.09-8.15-11.89-1.83-1.17-5.74-2.28-9.96-2.28Z"/>
  </g>
  <g>
    <line class="cls-7" x1="102.78" y1="174.7" x2="78.22" y2="207.44"/>
    <path class="cls-2" d="M78.22,209.85c-.5,0-1.01-.16-1.44-.48-1.06-.8-1.28-2.3-.48-3.36l24.56-32.75c.8-1.06,2.3-1.28,3.36-.48,1.06.8,1.28,2.3.48,3.36l-24.56,32.75c-.47.63-1.19.96-1.92.96Z"/>
  </g>
  <g>
    <line class="cls-7" x1="115.48" y1="194.25" x2="101.28" y2="223.65"/>
    <path class="cls-2" d="M101.28,226.05c-.35,0-.71-.08-1.04-.24-1.19-.58-1.69-2.01-1.12-3.21l14.2-29.4c.58-1.19,2.01-1.69,3.21-1.12,1.19.58,1.69,2.01,1.12,3.21l-14.2,29.4c-.41.86-1.27,1.36-2.16,1.36Z"/>
  </g>
  <g>
    <line class="cls-7" x1="130.52" y1="197.42" x2="134.53" y2="225.15"/>
    <path class="cls-2" d="M134.52,227.55c-1.17,0-2.2-.86-2.37-2.06l-4.01-27.73c-.19-1.31.72-2.53,2.03-2.72,1.31-.19,2.53.72,2.72,2.03l4.01,27.73c.19,1.31-.72,2.53-2.03,2.72-.12.02-.23.03-.35.03Z"/>
  </g>
  <g>
    <line class="cls-7" x1="146.05" y1="192.24" x2="156.41" y2="207.28"/>
    <path class="cls-2" d="M156.41,209.68c-.76,0-1.51-.36-1.98-1.04l-10.36-15.04c-.75-1.09-.48-2.59.61-3.34,1.09-.75,2.59-.48,3.34.61l10.36,15.04c.75,1.09.48,2.59-.61,3.34-.42.29-.89.42-1.36.42Z"/>
  </g>
</svg>