<?xml version="1.0" encoding="UTF-8"?>
<svg id="Calque_1" data-name="Calque 1" xmlns="http://www.w3.org/2000/svg" viewBox="0 0 75.13 75.13">
  <defs>
    <style>
      .cls-1 {
        fill: #2a4867;
      }
    </style>
  </defs>
  <path class="cls-1" d="M70.86,75.13c-1.09,0-2.19-.42-3.02-1.25L1.25,7.3C-.42,5.63-.42,2.92,1.25,1.25S5.63-.42,7.3,1.25l66.58,66.58c1.67,1.67,1.67,4.38,0,6.05-.83.83-1.93,1.25-3.02,1.25Z"/>
  <path class="cls-1" d="M4.28,75.13c-1.09,0-2.19-.42-3.02-1.25-1.67-1.67-1.67-4.38,0-6.05L67.83,1.25c1.67-1.67,4.38-1.67,6.05,0s1.67,4.38,0,6.05L7.3,73.88c-.83.83-1.93,1.25-3.02,1.25Z"/>
</svg>