<?xml version="1.0" encoding="UTF-8"?>
<svg id="Calque_1" data-name="Calque 1" xmlns="http://www.w3.org/2000/svg" viewBox="0 0 77.08 77.08">
  <defs>
    <style>
      .cls-1 {
        fill: #2a4867;
      }
    </style>
  </defs>
  <path class="cls-1" d="M72.81,0H21.51c-2.36,0-4.28,1.91-4.28,4.27v21.51h8.55V8.55h42.75v42.75h-17.23v8.55h21.51c2.36,0,4.27-1.92,4.27-4.28V4.27c0-2.36-1.91-4.27-4.27-4.27Z"/>
  <path class="cls-1" d="M55.57,17.23H4.27c-2.36,0-4.27,1.92-4.27,4.28v51.3c0,2.36,1.91,4.27,4.27,4.27h51.3c2.36,0,4.28-1.91,4.28-4.27V21.51c0-2.36-1.92-4.28-4.28-4.28ZM51.3,68.53H8.55V25.78h42.75v42.75Z"/>
</svg>